<?xml version="1.0" encoding="UTF-8"?>
<svg id="_图层_2" data-name="图层 2" xmlns="http://www.w3.org/2000/svg" xmlns:xlink="http://www.w3.org/1999/xlink" viewBox="0 0 234 22.09">
  <defs>
    <style>
      .cls-1 {
        fill: url(#_未命名的渐变_3);
      }

      .cls-2 {
        fill: #9db1bf;
        opacity: .6;
      }

      .cls-3 {
        fill: url(#_未命名的渐变_18-5);
      }

      .cls-4 {
        fill: url(#_未命名的渐变_18-2);
      }

      .cls-5 {
        fill: url(#_未命名的渐变_18-3);
      }

      .cls-6 {
        fill: url(#_未命名的渐变_18-4);
      }

      .cls-7 {
        fill: url(#_未命名的渐变_18-6);
      }

      .cls-8 {
        fill: #9aacba;
        opacity: .22;
      }

      .cls-9 {
        fill: #b3b3b3;
      }

      .cls-10 {
        fill: #fff;
      }

      .cls-11 {
        fill: url(#_未命名的渐变_18);
      }
    </style>
    <linearGradient id="_未命名的渐变_3" data-name="未命名的渐变 3" x1="-2335.66" y1="643.32" x2="-2335.8" y2="642.85" gradientTransform="translate(88766.86 27021.12) scale(38 -42)" gradientUnits="userSpaceOnUse">
      <stop offset="0" stop-color="#2aabdb"/>
      <stop offset="1" stop-color="#1ee0a2"/>
    </linearGradient>
    <linearGradient id="_未命名的渐变_18" data-name="未命名的渐变 18" x1="13.92" y1="1" x2="14.26" y2="1" gradientUnits="userSpaceOnUse">
      <stop offset=".28" stop-color="#4b7cfd"/>
      <stop offset="1" stop-color="#1ee0a2"/>
    </linearGradient>
    <linearGradient id="_未命名的渐变_18-2" data-name="未命名的渐变 18" x1="14.67" y1="1.16" x2="14.68" y2="1.16" xlink:href="#_未命名的渐变_18"/>
    <linearGradient id="_未命名的渐变_18-3" data-name="未命名的渐变 18" x1="16.83" y1="2.4" x2="17.01" y2="2.4" xlink:href="#_未命名的渐变_18"/>
    <linearGradient id="_未命名的渐变_18-4" data-name="未命名的渐变 18" x1="8.22" y1="11.37" x2="27.06" y2="11.37" xlink:href="#_未命名的渐变_18"/>
    <linearGradient id="_未命名的渐变_18-5" data-name="未命名的渐变 18" x1="13.02" y1=".89" x2="13.7" y2=".89" xlink:href="#_未命名的渐变_18"/>
    <linearGradient id="_未命名的渐变_18-6" data-name="未命名的渐变 18" x1="12.91" y1=".87" x2="13.07" y2=".87" xlink:href="#_未命名的渐变_18"/>
  </defs>
  <g id="_图层_1-2" data-name="图层 1">
    <g>
      <g>
        <g>
          <g>
            <path class="cls-10" d="M39.93,5.31l-.53,7.64-.09,1.16c-.14,1.7-1.18,2.55-2.8,2.55-.77,0-1.37-.21-1.77-.63-.41-.42-.7-1.09-.64-2l.05-1.08.53-7.64h-2.73l-.53,7.64h0l-.08,1.16c-.09,1.51.32,2.7,1.22,3.56.9.86,2.16,1.3,3.8,1.3s2.99-.44,4.01-1.33c1.02-.89,1.58-2.1,1.69-3.63l.08-1.06.53-7.64h-2.73Z"/>
            <path class="cls-10" d="M54.18,14.86c-.23-.38-.72-1.37-1.96-1.75h-.02c2.13-.03,3.96-1.76,4.11-3.89.15-2.14-1.46-3.88-3.6-3.89h0s-6.81,0-6.81,0h0s-.33,0-.33,0l-.94,13.43h2.73l.39-5.64h.69c.86,0,1.66.45,2.11,1.18l1.97,3.23c.46.75,1.28,1.21,2.16,1.21h1.86l-2.37-3.88ZM52.1,11h-4.19l.24-3.41h3.87c.88,0,1.81.8,1.75,1.71-.07.94-.73,1.69-1.67,1.7h0Z"/>
            <path class="cls-10" d="M82.72,14.86c-.23-.38-.72-1.37-1.96-1.75h-.02c2.13-.03,3.96-1.76,4.11-3.89.15-2.14-1.46-3.88-3.6-3.89h0s-6.81,0-6.81,0h0s-.33,0-.33,0l-.94,13.43h2.73l.39-5.64h.69c.86,0,1.66.45,2.11,1.18l1.97,3.23c.46.75,1.28,1.21,2.16,1.21h1.86l-2.37-3.88ZM80.64,11h-4.19l.24-3.41h3.87c.88,0,1.81.8,1.75,1.71-.07.94-.73,1.69-1.67,1.7h0Z"/>
            <path class="cls-10" d="M65.12,5.08h0c-3.63,0-6.75,2.72-7.03,6.81l-.02.3c-.35,4.28,2.48,6.81,6.11,6.81h0c3.63,0,6.76-2.7,7.03-6.81l.02-.3c.3-4.41-2.48-6.81-6.11-6.81ZM68.47,11.94v.19c-.17,2.62-2,4.54-4.11,4.54h0c-2.11,0-3.75-1.82-3.55-4.54v-.19c.17-2.6,2.1-4.51,4.21-4.51s3.62,1.7,3.44,4.51Z"/>
            <path class="cls-10" d="M99.38,18.74l-4.55-13.42h-2.95l-6.42,13.42h2.95s4.7-9.81,4.7-9.81l1.66,4.89h-.79c-.99,0-1.8.76-1.87,1.74l-.04.63h3.51l.86,2.55h2.95Z"/>
          </g>
          <g>
            <g>
              <polygon class="cls-10" points="134.19 7.12 132.7 6.02 130.34 9.14 131.83 10.24 134.19 7.12"/>
              <polygon class="cls-10" points="125 7.12 123.51 6.02 121.15 9.14 122.64 10.24 125 7.12"/>
              <path class="cls-10" d="M133.01,12.67c.88,0,1.62-.72,1.65-1.59v-.14s-5.36,0-5.36,0l.21-5.94h-.35c-.88,0-1.62.72-1.65,1.6l-.15,4.34-.06,1.73-.16,4.68-.06,1.73h0s1.95,0,1.95,0h0s3.77,0,3.77,0c.88,0,1.62-.72,1.65-1.59v-.14s-5.36,0-5.36,0l.16-4.68h3.77Z"/>
              <path class="cls-10" d="M125.55,10.94h-5.4l-.06,1.73h4.04l-4.49,6.41h1.46c.54,0,1.05-.27,1.36-.72l3.95-5.69h0s0-.01,0-.02c.09-.16.13-.54.13-.54h0s0,0,0-.01v-.11c.02-.58-.42-1.05-.99-1.05Z"/>
            </g>
            <g>
              <polygon class="cls-10" points="103 17.52 104.58 17.52 104.85 9.74 103.27 9.74 103 17.52"/>
              <polygon class="cls-10" points="107.47 15.34 109.05 15.34 109.24 9.74 107.66 9.74 107.47 15.34"/>
              <path class="cls-10" d="M115.24,15.32l2.21-3.17s0,0,0,0c0,0,0,0,0,0h0s0-.01,0-.02c.09-.16.13-.54.13-.54h0s0,0,0-.01v-.11c.02-.58-.42-1.05-.99-1.05h-1.24l2.26-3.26h0s0-.01,0-.02c.09-.16.13-.54.13-.54h0s0,0,0-.01v-.11c.02-.58-.42-1.05-.99-1.05h-7.22l-.06,1.73h1.12l-1.19,9.72c-.04.33-.33.59-.66.59h-.55l-.06,1.61h1.39c.74,0,1.39-.57,1.48-1.31l1.3-10.61h3.26l-2.26,3.26-.57.81-.03.92h2.68l-4.84,6.93,1.24-.02c.52,0,1.02-.28,1.33-.72l1.04-1.5,1,1.54c.28.44.77.7,1.29.7h1.21l-2.44-3.76Z"/>
              <path class="cls-10" d="M107.8,8.88c.88,0,1.62-.72,1.65-1.59v-.36s-2.2,0-2.2,0l.07-1.93h-.3c-.83,0-1.5.65-1.53,1.48l-.02.45h-2.23l-.07,1.95h2.23l-.36,10.2h1.78l.34-10.2h.64Z"/>
            </g>
          </g>
        </g>
        <g>
          <path class="cls-1" d="M0,20.43C0,12.33,7.42.87,13.06.87c.91,0,1.87.3,2.83.83,1,.61,2,1.41,2.67,2.12-3.29-2.44-6.11-2.12-7.34-.64-2.36,2.83-1.7,11.2,2.65,14.09,1.19.79-5.18,2.73-8.62,3.48-3.44.75-5.26,1.08-5.26-.31Z"/>
          <g>
            <path class="cls-11" d="M13.95.97c.1.02.19.04.29.07-.1-.03-.19-.05-.29-.07Z"/>
            <path class="cls-4" d="M14.67,1.16s0,0,.01,0c0,0,0,0-.01,0Z"/>
            <path class="cls-5" d="M16.84,2.34c.05.04.1.08.15.12-.05-.04-.1-.08-.15-.12Z"/>
            <path class="cls-6" d="M18.56,3.82c-3.29-2.44-6.1-2.11-7.33-.64-1.28,1.53-1.66,4.67-1.07,7.69,5.69.46,10.53,4.9,12.28,6.37.66.58,1.32,1.22,1.89,1.82,1.08,1.12,1.73,2.08,1.73,1.47,0-5.53-3.5-12.74-7.5-16.71Z"/>
            <path class="cls-3" d="M13.08.87c.19,0,.39.02.59.05-.2-.03-.4-.05-.59-.05Z"/>
            <path class="cls-7" d="M13.06.87s0,0,0,0c-.04,0-.09,0-.13,0,.04,0,.09,0,.14,0Z"/>
          </g>
        </g>
      </g>
      <g>
        <rect class="cls-2" x="145.36" width=".69" height="22.09"/>
        <g>
          <rect class="cls-8" x="156.75" y="1.68" width="77.25" height="18.85" rx="9.43" ry="9.43"/>
          <g>
            <path class="cls-9" d="M171.17,12.85h.02v-6.15h1.1v7.7h-1.39l-4.15-6.28h-.02v6.28h-1.1v-7.7h1.43l4.11,6.15Z"/>
            <path class="cls-9" d="M177.42,11.06c0-.38-.12-.67-.35-.85-.24-.18-.55-.28-.94-.28-.3,0-.58.06-.84.17-.26.11-.48.26-.66.43l-.56-.65c.26-.24.58-.43.95-.57.37-.14.77-.21,1.2-.21.38,0,.7.05.98.16.28.11.51.25.68.43s.31.39.4.64.13.51.13.79v2.25c0,.17,0,.36.02.55.01.19.03.35.06.47h-.94c-.06-.25-.09-.49-.09-.74h-.03c-.19.28-.43.49-.73.64-.29.15-.64.23-1.04.23-.21,0-.42-.03-.65-.08-.23-.05-.43-.14-.62-.27-.19-.12-.34-.29-.46-.49-.12-.2-.18-.45-.18-.75,0-.39.11-.7.32-.93.21-.23.5-.4.84-.52.35-.12.74-.2,1.18-.23.44-.04.88-.05,1.32-.05v-.14ZM177.17,11.94c-.26,0-.53.01-.81.03-.28.02-.53.07-.76.13-.22.07-.41.16-.56.29-.15.13-.22.3-.22.52,0,.15.03.28.09.38.06.1.15.18.25.25.1.06.22.11.34.14.13.03.26.04.39.04.49,0,.86-.14,1.13-.43.26-.29.39-.65.39-1.08v-.27h-.26Z"/>
            <path class="cls-9" d="M183.01,10.54c-.12-.19-.29-.34-.5-.46s-.46-.18-.72-.18c-.12,0-.24.01-.35.04-.12.03-.22.07-.32.12-.09.05-.17.12-.22.21-.06.08-.08.19-.08.31,0,.22.1.38.3.48.2.11.5.2.9.29.25.06.48.13.7.21.21.08.4.18.56.3.16.12.28.26.37.43.09.17.13.36.13.59,0,.3-.06.56-.18.77-.12.21-.28.38-.47.52-.2.13-.42.23-.67.29-.25.06-.51.09-.78.09-.4,0-.79-.08-1.17-.23-.38-.15-.7-.38-.95-.7l.74-.62c.14.2.34.37.58.51.25.14.52.21.82.21.13,0,.26-.01.38-.04.12-.03.23-.07.33-.13.1-.06.18-.13.24-.23s.09-.21.09-.36c0-.24-.12-.42-.35-.53-.23-.12-.58-.22-1.03-.33-.18-.04-.36-.1-.54-.16-.18-.06-.35-.15-.49-.26-.15-.11-.27-.24-.36-.41-.09-.16-.14-.36-.14-.6,0-.28.06-.51.17-.71.11-.2.26-.36.45-.49s.4-.22.63-.28c.24-.06.48-.09.73-.09.38,0,.74.07,1.09.22.35.15.62.36.82.63l-.72.6Z"/>
            <path class="cls-9" d="M189.29,13.58c-.2.31-.47.55-.82.71-.34.16-.71.24-1.08.24-.41,0-.77-.07-1.1-.21-.33-.14-.6-.34-.83-.58-.23-.25-.41-.54-.53-.87-.13-.33-.19-.69-.19-1.07s.06-.73.19-1.06c.13-.33.31-.62.54-.86s.51-.44.84-.58c.33-.14.68-.21,1.08-.21.43,0,.8.09,1.12.27.32.18.57.39.75.65h.02v-3.84h1.04v8.22h-1.01v-.81h-.02ZM185.83,11.81c0,.24.04.47.11.69.07.22.18.42.33.6.15.17.33.31.54.42s.47.16.76.16c.27,0,.51-.05.73-.15.22-.1.4-.24.56-.41.16-.17.28-.37.36-.59s.13-.46.13-.7-.04-.48-.13-.7-.21-.42-.36-.6c-.16-.17-.34-.31-.56-.41-.22-.1-.46-.15-.73-.15-.29,0-.54.05-.76.15s-.4.24-.54.41c-.15.17-.26.37-.33.6s-.11.45-.11.69Z"/>
            <path class="cls-9" d="M195.42,11.06c0-.38-.12-.67-.35-.85-.24-.18-.55-.28-.94-.28-.3,0-.58.06-.84.17-.26.11-.48.26-.66.43l-.56-.65c.26-.24.58-.43.95-.57.37-.14.77-.21,1.2-.21.38,0,.7.05.98.16.28.11.51.25.68.43s.31.39.4.64.13.51.13.79v2.25c0,.17,0,.36.02.55.01.19.03.35.06.47h-.94c-.06-.25-.09-.49-.09-.74h-.03c-.19.28-.43.49-.73.64-.29.15-.64.23-1.04.23-.21,0-.42-.03-.65-.08-.23-.05-.43-.14-.62-.27-.19-.12-.34-.29-.46-.49-.12-.2-.18-.45-.18-.75,0-.39.11-.7.32-.93.21-.23.5-.4.84-.52.35-.12.74-.2,1.18-.23.44-.04.88-.05,1.32-.05v-.14ZM195.16,11.94c-.26,0-.53.01-.81.03-.28.02-.53.07-.76.13-.22.07-.41.16-.56.29-.15.13-.22.3-.22.52,0,.15.03.28.09.38.06.1.15.18.25.25.1.06.22.11.34.14.13.03.26.04.39.04.49,0,.86-.14,1.13-.43.26-.29.39-.65.39-1.08v-.27h-.26Z"/>
            <path class="cls-9" d="M202.32,13.62c-.19.29-.46.51-.79.67-.34.16-.69.24-1.07.24-.41,0-.77-.07-1.1-.21-.33-.14-.6-.34-.83-.58-.23-.25-.41-.54-.53-.87-.13-.33-.19-.69-.19-1.07s.06-.73.19-1.06c.13-.33.31-.62.54-.86s.51-.44.84-.58c.33-.14.68-.21,1.08-.21.43,0,.81.09,1.14.27.33.18.58.4.76.68h.03v-.8h1.01v7.76h-1.04v-3.38h-.02ZM198.89,11.81c0,.24.04.47.11.7s.18.42.33.6c.15.17.33.31.54.42s.47.16.76.16c.27,0,.51-.05.73-.15.22-.1.4-.24.56-.41s.28-.37.36-.59c.09-.22.13-.46.13-.71s-.04-.48-.13-.71c-.09-.22-.21-.42-.36-.6s-.34-.31-.56-.41c-.22-.1-.46-.15-.73-.15-.29,0-.54.05-.76.15s-.4.24-.54.41c-.15.17-.26.37-.33.6-.07.22-.11.46-.11.7Z"/>
            <path class="cls-9" d="M208.34,9.29c.13.13.2.28.2.47s-.07.35-.2.48c-.13.12-.3.18-.48.18-.2,0-.36-.06-.48-.18-.13-.13-.2-.29-.2-.48s.07-.34.2-.47c.12-.13.28-.2.48-.2.18,0,.34.06.48.2ZM208.34,13.27c.13.13.2.28.2.47s-.07.35-.2.48c-.13.12-.3.18-.48.18-.2,0-.36-.07-.48-.18-.13-.13-.2-.29-.2-.48s.07-.34.2-.47c.12-.13.28-.2.48-.2.18,0,.34.07.48.2Z"/>
            <path class="cls-9" d="M213.1,12.68c.06.28.19.5.39.69.2.18.45.27.74.27.24,0,.43-.04.58-.13s.27-.2.36-.35c.09-.15.15-.32.19-.52.04-.2.06-.41.06-.64v-5.29h1.1v5.34c0,.27-.03.55-.09.85-.06.3-.17.57-.33.83-.16.25-.39.46-.68.63-.29.17-.67.25-1.13.25-.6,0-1.09-.15-1.46-.46-.38-.3-.63-.7-.74-1.17l1.02-.28Z"/>
            <path class="cls-9" d="M224.29,8.28c-.24-.25-.54-.46-.9-.61-.37-.15-.77-.23-1.23-.23s-.87.08-1.24.24c-.37.16-.69.39-.94.67-.26.28-.46.61-.6.98-.14.37-.21.77-.21,1.19s.07.83.21,1.21c.14.38.34.7.6.98.26.28.58.5.95.66.38.16.8.24,1.27.24.37,0,.71-.03,1.02-.1s.58-.16.81-.28v-2.14h-1.74v-.91h2.83v3.73c-.41.22-.87.38-1.35.5-.49.12-1.02.17-1.6.17-.61,0-1.18-.1-1.69-.3-.51-.2-.96-.48-1.33-.84-.37-.36-.66-.79-.87-1.28-.21-.5-.31-1.04-.31-1.64s.11-1.15.32-1.65c.21-.5.5-.92.88-1.27.37-.35.82-.62,1.33-.82.51-.2,1.07-.29,1.67-.29.63,0,1.19.09,1.68.27s.9.42,1.23.73l-.77.78Z"/>
          </g>
        </g>
      </g>
    </g>
  </g>
</svg>